HIERARCHY
ROOT Hips
{
    OFFSET 0.000000 0.000000 0.000000
    CHANNELS 6 Xposition Yposition Zposition Zrotation Xrotation Yrotation
    JOINT Chest
    {
        OFFSET -0.000000 0.071158 0.000000
        CHANNELS 3 Zrotation Xrotation Yrotation
        JOINT Chest2
        {
            OFFSET -0.000000 0.199177 0.000000
            CHANNELS 3 Zrotation Xrotation Yrotation
            JOINT Neck
            {
                OFFSET -0.000000 0.216533 0.000000
                CHANNELS 3 Zrotation Xrotation Yrotation
                JOINT Head
                {
                    OFFSET -0.000000 0.094154 0.017356
                    CHANNELS 3 Zrotation Xrotation Yrotation
                    End Site
                    {
                        OFFSET -0.000000 0.173555 0.000000
                    }
                }
            }
            JOINT LeftCollar
            {
                OFFSET 0.034315 0.182350 -0.001015
                CHANNELS 3 Zrotation Xrotation Yrotation
                JOINT LeftShoulder
                {
                    OFFSET 0.103253 0.000000 0.000000
                    CHANNELS 3 Zrotation Xrotation Yrotation
                    JOINT LeftElbow
                    {
                        OFFSET 0.264272 0.000000 0.000000
                        CHANNELS 3 Zrotation Xrotation Yrotation
                        JOINT LeftWrist
                        {
                            OFFSET 0.228814 0.000000 0.000000
                            CHANNELS 3 Zrotation Xrotation Yrotation
                            End Site
                            {
                                OFFSET 0.000000 -0.130166 0.000000
                            }
                        }
                    }
                }
            }
            JOINT RightCollar
            {
                OFFSET -0.035078 0.182350 -0.001015
                CHANNELS 3 Zrotation Xrotation Yrotation
                JOINT RightShoulder
                {
                    OFFSET -0.103253 0.000000 0.000000
                    CHANNELS 3 Zrotation Xrotation Yrotation
                    JOINT RightElbow
                    {
                        OFFSET -0.264272 0.000000 0.000000
                        CHANNELS 3 Zrotation Xrotation Yrotation
                        JOINT RightWrist
                        {
                            OFFSET -0.228814 0.000000 0.000000
                            CHANNELS 3 Zrotation Xrotation Yrotation
                            End Site
                            {
                                OFFSET -0.000000 -0.130166 0.000000
                            }
                        }
                    }
                }
            }
        }
    }
    JOINT LeftHip
    {
        OFFSET 0.086778 0.000000 0.000000
        CHANNELS 3 Zrotation Xrotation Yrotation
        JOINT LeftKnee
        {
            OFFSET -0.000000 -0.400662 0.000000
            CHANNELS 3 Zrotation Xrotation Yrotation
            JOINT LeftAnkle
            {
                OFFSET -0.000000 -0.330634 0.000000
                CHANNELS 3 Zrotation Xrotation Yrotation
                JOINT LeftToe
                {
                    OFFSET -0.000000 -0.056405 0.130166
                    CHANNELS 3 Zrotation Xrotation Yrotation
                    End Site
                    {
                        OFFSET -0.000000 0.000000 0.034711
                    }
                }
            }
        }
    }
    JOINT RightHip
    {
        OFFSET -0.086778 0.000000 0.000000
        CHANNELS 3 Zrotation Xrotation Yrotation
        JOINT RightKnee
        {
            OFFSET -0.000000 -0.400662 0.000000
            CHANNELS 3 Zrotation Xrotation Yrotation
            JOINT RightAnkle
            {
                OFFSET -0.000000 -0.330634 0.000000
                CHANNELS 3 Zrotation Xrotation Yrotation
                JOINT RightToe
                {
                    OFFSET -0.000000 -0.056405 0.130166
                    CHANNELS 3 Zrotation Xrotation Yrotation
                    End Site
                    {
                        OFFSET -0.000000 0.000000 0.034711
                    }
                }
            }
        }
    }
}
MOTION
Frames:    14
Frame Time:    0.016667
0.009143    0.808589    0.274925    0.998526    -0.575807    176.936752    0.266613    -4.006101    -0.363566    0.811309    2.338096    -0.140325    -3.290195    7.235279    -1.117915    1.599226    0.903117    -2.022207    3.690221    2.848117    -1.219475    -49.389290    -0.624322    8.060330    2.434098    -23.344744    -5.818630    96.718079    -4.235996    23.479778    -7.986228    3.409875    3.305838    56.696598    11.902016    0.871312    -8.726542    -7.597764    7.594419    -120.808281    6.305588    -5.283199    2.682914    1.959081    0.821815    -5.062543    11.530725    3.008827    1.296206    -15.227761    8.793969    0.000000    0.000000    0.000000    -0.240779    -7.742578    -0.177716    -0.317398    10.767344    -1.918921    0.632503    -4.396570    -0.836173    0.000000    0.000000    0.000000    
0.009100    0.808607    0.274679    0.978909    -0.591686    177.012390    0.290918    -3.993850    -0.286896    0.781767    2.319993    -0.114625    -3.308546    7.312832    -1.197160    1.583062    0.845328    -2.107002    3.788967    2.698897    -1.090811    -49.084282    -1.430964    8.386003    2.517175    -21.969526    -5.524942    97.276733    -3.066496    22.051804    -8.048900    3.509794    3.240493    56.527393    11.663916    0.875461    -8.603314    -7.177096    7.402790    -120.450668    6.185742    -4.938438    2.663243    1.936918    0.822690    -5.041290    11.526753    3.186851    1.270967    -15.180738    8.496965    0.000000    0.000000    0.000000    -0.269260    -7.722854    -0.175743    -0.319707    10.739992    -1.941975    0.652111    -4.404591    -0.872618    0.000000    0.000000    0.000000    
0.009059    0.808562    0.274515    0.980385    -0.608948    177.081924    0.376807    -3.938531    -0.220974    0.663970    2.236636    -0.091132    -3.277200    7.404214    -1.273622    1.577421    0.779862    -2.180746    3.884784    2.736851    -1.000776    -48.765053    -1.863387    8.672235    2.617447    -20.703009    -5.375926    98.140282    -1.927098    20.725082    -8.172823    3.260869    3.522344    56.594627    11.406496    0.246974    -8.534512    -6.995986    7.396352    -120.283440    6.183829    -4.772253    2.662470    1.914473    0.824368    -5.023304    11.545547    3.170104    1.141086    -15.196680    8.532679    0.000000    0.000000    0.000000    -0.276172    -7.716164    -0.183392    -0.315526    10.726346    -2.054161    0.680375    -4.427838    -0.816161    0.000000    0.000000    0.000000    
0.009114    0.808501    0.274411    1.000428    -0.646446    177.167511    0.434993    -3.897984    -0.142978    0.619889    2.169224    -0.063986    -3.126008    7.462665    -1.362424    1.307931    0.742100    -2.207067    4.010095    2.689692    -0.883971    -48.225014    -3.085026    8.918859    2.679443    -18.647081    -5.048765    98.788910    -1.070492    18.617298    -8.251788    3.242479    3.421950    56.197170    10.932647    0.200038    -8.139368    -6.765786    7.206681    -120.647781    6.107953    -4.580522    2.696187    1.889625    0.820650    -5.026723    11.510477    3.264449    1.088803    -15.214714    8.367871    0.000000    0.000000    0.000000    -0.251341    -7.735824    -0.197184    -0.321667    10.734350    -2.113610    0.679422    -4.479897    -0.813093    0.000000    0.000000    0.000000    
0.009172    0.808560    0.274179    1.010608    -0.654627    177.229218    0.440608    -3.862142    -0.093423    0.647034    2.136911    -0.047346    -3.177284    7.484160    -1.414240    1.352324    0.722015    -2.277221    4.127495    2.626621    -0.795252    -47.925625    -3.279379    9.191443    2.744660    -17.547543    -4.837079    99.444328    -0.358738    17.466557    -8.359522    3.206823    3.335541    56.102848    11.056459    0.153877    -8.448988    -6.508804    6.814050    -119.943733    6.267838    -4.330169    2.718503    1.912884    0.781326    -5.039958    11.457645    3.261122    1.130467    -15.184464    8.290071    0.000000    0.000000    0.000000    -0.255443    -7.679507    -0.274843    -0.302680    10.651718    -2.176852    0.713429    -4.467944    -0.746202    0.000000    0.000000    0.000000    
0.009243    0.808630    0.273903    1.006783    -0.666197    177.283798    0.398077    -3.875748    -0.081334    0.743881    2.171850    -0.045797    -3.297244    7.446565    -1.416012    1.472518    0.744552    -2.318375    4.175282    2.615372    -0.633869    -47.623791    -3.273419    9.365906    2.763980    -16.880518    -4.681853    100.616302    0.114512    16.761656    -8.503227    3.142977    3.323467    55.830181    10.834967    0.000876    -8.370989    -5.939183    6.736158    -119.856026    6.278711    -3.772607    2.717271    1.886011    0.816449    -5.015801    11.522062    3.098924    1.229049    -15.189338    8.367212    0.000000    0.000000    0.000000    -0.258447    -7.651890    -0.279730    -0.297814    10.631257    -2.206336    0.707793    -4.469541    -0.768061    0.000000    0.000000    0.000000    
0.009330    0.808629    0.273637    1.011355    -0.670778    177.355667    0.383247    -3.888643    -0.073017    0.787421    2.216515    -0.043593    -3.370091    7.461022    -1.438639    1.579813    0.706093    -2.370714    4.307631    2.548639    -0.528368    -47.456776    -2.505091    9.626577    2.723054    -16.512415    -4.668083    100.668442    0.610077    16.348927    -8.575446    3.126924    3.255958    55.425777    10.491987    -0.037425    -8.207559    -5.456369    6.730992    -119.532173    6.457334    -3.271199    2.722390    1.887824    0.756062    -5.000980    11.533559    3.047266    1.242419    -15.190767    8.410167    0.000000    0.000000    0.000000    -0.256930    -7.629707    -0.306062    -0.293591    10.633084    -2.227951    0.697790    -4.489707    -0.796381    0.000000    0.000000    0.000000    
0.009469    0.808571    0.273365    1.036079    -0.667396    177.424713    0.389580    -3.892710    -0.071113    0.827310    2.235156    -0.044122    -3.450144    7.530529    -1.450976    1.692402    0.625469    -2.415518    4.373627    2.605752    -0.465982    -47.060860    -2.361725    9.809875    2.547649    -15.776156    -4.709094    101.687386    1.242918    15.548055    -8.608439    3.163550    3.116619    55.062046    10.581969    0.103083    -8.334735    -5.353564    6.283214    -119.619171    6.498466    -3.177271    2.755063    1.921935    0.697833    -4.989410    11.496239    3.091195    1.047575    -15.215206    8.436110    0.000000    0.000000    0.000000    -0.209938    -7.632511    -0.351077    -0.337020    10.706711    -2.198730    0.673817    -4.530940    -0.830773    0.000000    0.000000    0.000000    
0.009565    0.808551    0.273206    1.047400    -0.684419    177.474899    0.386084    -3.891296    -0.076961    0.853527    2.234210    -0.045818    -3.462979    7.538600    -1.454836    1.713932    0.611922    -2.425012    4.480219    2.578981    -0.357038    -46.752335    -2.302783    9.806331    2.648732    -14.676702    -4.450243    102.630310    1.876274    14.369388    -8.691990    3.099366    3.208420    54.641907    10.121985    -0.143998    -8.143507    -5.257652    6.463012    -119.172707    6.626026    -3.072795    2.775673    1.911794    0.686864    -4.977642    11.504390    3.003983    1.001970    -15.236264    8.489573    0.000000    0.000000    0.000000    -0.194690    -7.645165    -0.415241    -0.342521    10.746806    -2.178919    0.641597    -4.577554    -0.857685    0.000000    0.000000    0.000000    
0.009655    0.808610    0.272946    1.043971    -0.708370    177.499542    0.356747    -3.934187    -0.087615    0.910829    2.268743    -0.051475    -3.478396    7.567946    -1.454443    1.675285    0.572274    -2.422798    4.639611    2.502706    -0.305164    -46.546158    -1.911184    9.898582    2.756648    -13.776631    -4.259434    103.622200    2.572643    13.369662    -8.832760    2.976159    3.246845    54.354713    9.874362    -0.276249    -8.147985    -5.086581    6.263237    -119.370499    6.659514    -2.894544    2.782245    1.899736    0.721862    -4.972754    11.508053    2.901009    1.178783    -15.207426    8.434323    0.000000    0.000000    0.000000    -0.193509    -7.646533    -0.438474    -0.354354    10.748632    -2.140833    0.682535    -4.594577    -0.870573    0.000000    0.000000    0.000000    
0.009775    0.808640    0.272657    1.052765    -0.740680    177.537399    0.350945    -3.997005    -0.096591    0.948697    2.316389    -0.055026    -3.561548    7.642190    -1.447251    1.789459    0.490544    -2.448389    4.896313    2.397044    -0.313993    -46.376865    -1.594209    10.049523    2.928939    -12.874924    -4.217295    104.733002    3.521425    12.314323    -8.929346    2.906410    3.293025    53.941086    9.648829    -0.377737    -8.298095    -4.987948    6.163149    -119.473991    7.229858    -2.637926    2.811183    1.899266    0.683230    -4.996011    11.463681    2.934904    1.217994    -15.200516    8.403911    0.000000    0.000000    0.000000    -0.173138    -7.654706    -0.482178    -0.366283    10.758817    -2.137055    0.713159    -4.618066    -0.878539    0.000000    0.000000    0.000000    
0.009921    0.808583    0.272484    1.078520    -0.759118    177.570190    0.356756    -4.018795    -0.104584    1.000745    2.306003    -0.059268    -3.587812    7.696952    -1.423868    1.797389    0.523778    -2.432782    5.092117    2.083176    -0.255855    -46.170532    -1.623953    10.027322    2.927439    -12.290461    -3.794494    105.804970    3.666788    11.686506    -9.017242    2.832764    3.303149    53.543934    9.486962    -0.443591    -8.329835    -4.879565    6.159332    -119.554832    7.677279    -2.404084    2.856556    1.901625    0.667754    -5.013273    11.429581    3.077163    1.117144    -15.216933    8.308030    0.000000    0.000000    0.000000    -0.134231    -7.661389    -0.493351    -0.372172    10.768856    -2.185568    0.723090    -4.649961    -0.839927    0.000000    0.000000    0.000000    
0.010045    0.808545    0.272336    1.073632    -0.761224    177.618469    0.327351    -4.031344    -0.109226    1.043711    2.293931    -0.060778    -3.553467    7.790913    -1.430217    1.734571    0.493286    -2.426539    5.165862    2.099578    -0.325661    -45.833759    -1.877962    9.921242    2.798763    -11.968488    -3.754874    108.212532    3.972970    11.241615    -9.079428    2.776576    3.338047    53.257629    9.608874    -0.489201    -8.606815    -4.818010    5.933197    -119.544884    7.918269    -2.281463    2.860617    1.898012    0.639760    -5.003591    11.454599    3.044924    1.056383    -15.224036    8.274035    0.000000    0.000000    0.000000    -0.134191    -7.655263    -0.534995    -0.374361    10.791961    -2.162747    0.697831    -4.711342    -0.863250    0.000000    0.000000    0.000000    
0.010114    0.808578    0.272029    1.069265    -0.744548    177.646835    0.353780    -4.058261    -0.124970    1.010592    2.319195    -0.066441    -3.499514    7.853967    -1.419222    1.650614    0.509718    -2.395263    5.225351    2.136628    -0.341697    -45.557228    -1.857086    9.790680    2.655534    -11.900197    -3.836950    109.650444    4.974386    10.951097    -9.132483    2.726281    3.377304    52.823853    9.374729    -0.430100    -8.566051    -4.779564    5.777246    -120.274315    8.220117    -2.120690    2.855160    1.935494    0.623877    -4.994534    11.447530    3.000311    1.126494    -15.219927    8.300985    0.000000    0.000000    0.000000    -0.144553    -7.602897    -0.558900    -0.363885    10.776528    -2.157710    0.703565    -4.723391    -0.879635    0.000000    0.000000    0.000000    
